<?xml version="1.0" encoding="utf-8"?>
<!-- Generator: Adobe Illustrator 25.2.1, SVG Export Plug-In . SVG Version: 6.00 Build 0)  -->
<svg version="1.1" id="Layer_1" xmlns="http://www.w3.org/2000/svg" xmlns:xlink="http://www.w3.org/1999/xlink" x="0px" y="0px"
     viewBox="0 0 251.9 72.2" style="enable-background:new 0 0 251.9 72.2;" xml:space="preserve">
<style type="text/css">
	.st0{fill:#44B0EE;}
	.st1{fill:#0047BA;}
	.st2{fill:#112967;}
	.st3{fill:#0AAFF1;}
</style>
    <g>
	<path class="st0" d="M90.6,38.5l0.3,1.9H91l0.2-1.9l2.6-13.3h5.5L94,47.4h-5.1l-4-12.5l-0.3-1.7h-0.2l-0.2,1.7l-3.9,12.5h-5.1
		L70,25.1h5.5l2.7,13.7l0.1,1.4h0.2l0.3-1.4l4-13.7h3.7L90.6,38.5z"/>
        <path class="st0" d="M101.5,47.3V25.1h14.3v4.3h-8.9v4.4h8.4v4.3h-8.4V43h8.9v4.3H101.5z"/>
        <path class="st0" d="M118.5,25.1h5.3V43h8.2v4.3h-13.6L118.5,25.1L118.5,25.1z"/>
        <path class="st0" d="M134.9,25.1h5.3V43h8.2v4.3h-13.6V25.1H134.9z"/>
        <path class="st1" d="M151.3,41.9c1.6,0.5,3.1,0.9,5.1,0.9c1.4,0,2.8-0.5,2.8-1.8s-0.9-1.8-3.6-2.9c-3.4-1.4-5.4-3.3-5.4-6.3
		c0-4.5,3.9-6.6,8-6.6c2.2,0,4.1,0.5,6,1.3l-1,4.1c-1.7-0.5-3.1-0.9-5.1-0.9c-1.4,0-2.5,0.6-2.5,1.8s1,1.9,3.4,2.9
		c3.5,1.4,5.6,3.4,5.6,6.2c0,4.7-4.1,6.8-8.3,6.8c-2.1,0-4.1-0.5-6-1.3L151.3,41.9z"/>
        <path class="st1" d="M177.5,29.5v17.9h-5.3V29.5h-6.1v-4.3h17.3v4.3H177.5z"/>
        <path class="st1" d="M194.8,43.1h-7.5l-1.4,4.2h-5.5l8.1-22.2h5.2l8.1,22.2h-5.5L194.8,43.1z M188.6,38.9h4.8l-1.6-4.9l-0.7-2.9
		h-0.2l-0.6,2.8L188.6,38.9z"/>
        <path class="st1" d="M210.7,35.8l-1.3-2.2h-0.2v13.6h-5.3V25.1h4.6l8.6,11.6l1.5,2.4l0.2-0.1V25.1h5.3v22.2h-4.6L210.7,35.8z"/>
        <path class="st1" d="M227,25.1h7c7.5,0,12.1,4.8,12.1,11.1s-4.6,11.1-12.1,11.1h-7V25.1z M232.3,29.5V43h1.7c4.4,0,6.8-2.8,6.8-6.8
		c0-3.9-2.4-6.8-6.8-6.8L232.3,29.5L232.3,29.5z"/>
</g>
    <g>
	<path class="st2" d="M209.1,57.7h-3.2v3.5h-2v-8.5h2V56h3.2v-3.3h2v8.5h-2V57.7z"/>
        <path class="st2" d="M212.3,61.2v-8.5h5.4v1.6h-3.4V56h3.2v1.6h-3.2v1.9h3.4v1.6h-5.4V61.2z"/>
        <path class="st2" d="M224.2,59.6h-2.9l-0.5,1.6h-2.1l3.1-8.5h2l3.1,8.5h-2.1L224.2,59.6z M221.9,58h1.8l-0.6-1.9l-0.3-1.1h-0.1
		l-0.2,1.1L221.9,58z"/>
        <path class="st2" d="M227.8,52.8h2v6.8h3.1v1.6h-5.2L227.8,52.8L227.8,52.8z"/>
        <path class="st2" d="M235.8,54.4v6.8h-2v-6.8h-2.3v-1.6h6.6v1.6H235.8z"/>
        <path class="st2" d="M244.1,57.7h-3.2v3.5h-2v-8.5h2V56h3.2v-3.3h2v8.5h-2V57.7z"/>
</g>
    <g>
	<circle class="st3" cx="36" cy="36.2" r="3.3"/>
        <circle class="st0" cx="36" cy="36.2" r="3.3"/>
        <g>
		<circle class="st0" cx="61.2" cy="36.2" r="3.3"/>
            <circle class="st1" cx="10.9" cy="36.2" r="3.3"/>
            <circle class="st1" cx="36" cy="61.4" r="3.3"/>
            <circle class="st1" cx="36" cy="11" r="3.3"/>
            <circle class="st1" cx="53.8" cy="54" r="3.3"/>
            <circle class="st0" cx="18.2" cy="18.4" r="3.3"/>
            <circle class="st0" cx="18.2" cy="54" r="3.3"/>
            <circle class="st0" cx="53.8" cy="18.4" r="3.3"/>
	</g>
        <g>
		<circle class="st1" cx="48.6" cy="36.2" r="3.3"/>
            <circle class="st0" cx="23.5" cy="36.2" r="3.3"/>
            <circle class="st0" cx="36" cy="48.8" r="3.3"/>
            <circle class="st1" cx="36" cy="23.6" r="3.3"/>
            <circle class="st0" cx="44.9" cy="45.2" r="3.3"/>
            <circle class="st1" cx="27.1" cy="27.3" r="3.3"/>
            <circle class="st1" cx="27.1" cy="45.1" r="3.3"/>
            <circle class="st0" cx="44.9" cy="27.3" r="3.3"/>
	</g>
</g>
</svg>
